<svg xmlns="http://www.w3.org/2000/svg" xmlns:xlink="http://www.w3.org/1999/xlink" width="75.373" height="63" viewBox="0 0 75.373 63">
  <defs>
    <clipPath id="clip-path">
      <rect id="Rectángulo_454774" data-name="Rectángulo 454774" width="52.138" height="46.898" fill="#fff"/>
    </clipPath>
  </defs>
  <g id="Grupo_1179150" data-name="Grupo 1179150" transform="translate(-290 -1486.947)">
    <path id="Sustracción_107" data-name="Sustracción 107" d="M18072.5,11787h-43.873v-63h43.873a31.5,31.5,0,1,1,0,63Z" transform="translate(-17738.627 -10237.053)" fill="#132a60"/>
    <g id="Grupo_1177143" data-name="Grupo 1177143" transform="translate(247.992 540.888)">
      <g id="Layer_30" data-name="Layer 30" transform="translate(53.976 957.139)">
        <path id="Trazado_996649" data-name="Trazado 996649" d="M31.811,16.4,27.829,20.38a.24.24,0,0,1-.348,0l-1.07-1.065V31.654a.249.249,0,0,1-.249.249H12.225a.249.249,0,0,1-.249-.249V19.314l-1.07,1.065a.24.24,0,0,1-.348,0L6.575,16.4a.249.249,0,0,1-.015-.338c.144-.164,3.529-4.027,4.559-4.54s5.371-1,5.555-1.02a.262.262,0,0,1,.184.055,3.377,3.377,0,0,0,4.669,0,.262.262,0,0,1,.184-.055c.184.02,4.535.508,5.555,1.02s4.415,4.375,4.559,4.54A.249.249,0,0,1,31.811,16.4Z" transform="translate(-6.501 -10.498)" fill="#fff"/>
      </g>
      <g id="Grupo_1177142" data-name="Grupo 1177142" transform="translate(47.629 952.61)">
        <g id="Grupo_1177141" data-name="Grupo 1177141" clip-path="url(#clip-path)">
          <path id="Trazado_996650" data-name="Trazado 996650" d="M31.1.8a.8.8,0,0,0,.8.8h2.892a.107.107,0,0,1,.107.107V4.6a.8.8,0,1,0,1.6,0V.8a.8.8,0,0,0-.8-.8H31.9A.8.8,0,0,0,31.1.8ZM0,4.6a.8.8,0,0,0,1.6,0V1.712a.107.107,0,0,1,.107-.107H4.6A.8.8,0,1,0,4.6,0H.8A.8.8,0,0,0,0,.8V4.6ZM1.6,34.792V31.9a.8.8,0,0,0-1.6,0v3.8a.8.8,0,0,0,.8.8H4.6a.8.8,0,1,0,0-1.6H1.711A.107.107,0,0,1,1.6,34.792Z" transform="translate(0 -0.001)" fill="#fff" fill-rule="evenodd"/>
          <path id="Trazado_996651" data-name="Trazado 996651" d="M62.587,370.854H18.451a.873.873,0,0,0-.87.87V373.2a.873.873,0,0,0,.87.87H62.587a.873.873,0,0,0,.87-.87v-1.471a.873.873,0,0,0-.87-.87" transform="translate(-15.51 -327.168)" fill="#fff" fill-rule="evenodd"/>
          <path id="Trazado_996652" data-name="Trazado 996652" d="M219.525,178.766h-.573a.863.863,0,0,0-.86.86V183a.107.107,0,0,1-.107.107h-2.767a.106.106,0,0,1-.106-.095c-.323-2.789-1.366-5.054-4.721-5.046a.107.107,0,0,1-.107-.107v-3.527a.8.8,0,1,0-1.6,0v3.718a.106.106,0,0,1-.085.1,5.287,5.287,0,0,0-2.923,1.744c-.832.858-1.275,1.9-2.286,2.547a3.858,3.858,0,0,1-2.4.589h-3.154a5.921,5.921,0,0,1-4.026-2.4.1.1,0,0,0-.085-.043h-2.9a.107.107,0,0,0-.107.107v11.9a.107.107,0,0,0,.107.107h.513a.107.107,0,0,1,.107.107v2.659a.8.8,0,1,0,1.6,0v-2.659a.107.107,0,0,1,.107-.107h.541a.105.105,0,0,0,.1-.075C194.44,190.537,196,188,198.431,188h3.125a2.705,2.705,0,0,1,2.5,1.152c1.175,1.554.087,4.185-1.128,6.427a.107.107,0,0,0,.094.158h12.124a.107.107,0,0,0,.107-.107V186.67c0-.613,0-1.235-.021-1.85a.107.107,0,0,1,.107-.11h2.643a.107.107,0,0,1,.107.107v3.373a.863.863,0,0,0,.86.86h.573a.863.863,0,0,0,.86-.86v-8.564a.863.863,0,0,0-.86-.86m-10.044,6.843a1.892,1.892,0,1,1,1.892-1.892,1.892,1.892,0,0,1-1.892,1.892" transform="translate(-168.246 -153.087)" fill="#fff" fill-rule="evenodd"/>
        </g>
      </g>
    </g>
  </g>
</svg>
