<svg id="Grupo_1178211" data-name="Grupo 1178211" xmlns="http://www.w3.org/2000/svg" width="57.12" height="53.252" viewBox="0 0 57.12 53.252">
  <path id="Trazado_997136" data-name="Trazado 997136" d="M884.573,599.4c0,1.62-.009,3.241,0,4.861a9.519,9.519,0,0,0,9.007,9.365c1.256.057,1.432.234,1.434,1.463,0,1.648.007,3.3,0,4.943-.005.926-.315,1.218-1.247,1.23-6.877.094-14.054-4.9-16.518-11.38a21.659,21.659,0,0,1-1.271-7.664c-.015-2.169.026-4.339.009-6.508a12.41,12.41,0,0,0-12.1-12.47c-.934-.034-1.217-.31-1.221-1.255q-.013-3.049,0-6.1c0-.924.318-1.228,1.255-1.213a20.976,20.976,0,0,1,19.407,13.835,21.806,21.806,0,0,1,1.248,7.511C884.57,597.146,884.572,598.272,884.573,599.4ZM864.553,581.27a1.106,1.106,0,0,0,.221.1A14.436,14.436,0,0,1,875.44,587.6a1.154,1.154,0,0,0,.8.386c1.125.043,2.252.025,3.378.016.645,0,1.087.227,1.081.935s-.461.925-1.1.918c-.927-.011-1.854,0-2.769,0l1.162,4.756c.48,0,1.053-.014,1.626,0,.622.019,1.086.276,1.089.967s-.464.951-1.084.971c-.566.019-1.132,0-1.693,0v4.732c.608,0,1.156-.005,1.7,0,.636.008,1.088.268,1.075.964s-.486.926-1.113.927c-.566,0-1.131,0-1.8,0,.154,1.189.249,2.255.438,3.3.266,1.48.3,1.475,1.819,1.476.192,0,.385,0,.577,0,.616-.005,1.018.255,1.026.909s-.359.944-.989.945h-1.234c2.121,5.524,8.525,9.472,13.722,9.42,0-1.006-.033-2.017.013-3.024.026-.578-.21-.741-.738-.816a11.4,11.4,0,0,1-9.776-11.29c0-2.308.027-4.616-.01-6.923a35.925,35.925,0,0,0-.243-4.764,19.311,19.311,0,0,0-14.188-15.3c-1.181-.274-2.4-.4-3.658-.6Z" transform="translate(-854.087 -574.674)" fill="#d9f99d"/>
  <path id="Trazado_997137" data-name="Trazado 997137" d="M964.687,593.03c-.858,0-1.818-.04-2.77.026-.261.018-.539.318-.74.548-.436.5-.894.763-1.475.265s-.352-.956.009-1.508a2.418,2.418,0,0,1,2.478-1.211c1.035.1,2.086.016,3.13.022,1.144.006,1.246.207,1.419,1.321a10.506,10.506,0,0,0,.86,3.058,4.2,4.2,0,0,0,4.047,2.61,4.367,4.367,0,0,0,3.936-2.923,10.313,10.313,0,0,0,.675-2.772c.145-1.031.333-1.287,1.385-1.293,1.291-.007,2.585-.049,3.872.025a1.927,1.927,0,0,1,1.259.563c2.981,3.591,5.913,7.223,8.866,10.837a1.13,1.13,0,0,1,.08,1.5c-1.447,2.2-2.873,4.418-4.319,6.62a1.055,1.055,0,0,1-1.73.336c-.9-.616-1.782-1.251-2.826-1.986,0,.447,0,.733,0,1.02q.018,6.964.034,13.927c0,1.222-.266,1.488-1.5,1.488q-4.409,0-8.818,0a5.193,5.193,0,0,1-.576-.009.924.924,0,0,1-.933-.958.905.905,0,0,1,.94-.949c.713-.032,1.428-.016,2.142-.017q2.925,0,5.851,0h.966c0-.423,0-.745,0-1.066-.022-4.917-.058-9.834-.042-14.751a2.05,2.05,0,0,1,.53-1.339c.479-.465.961.024,1.38.312,1.105.761,2.2,1.536,3.373,2.358,1.191-1.825,2.363-3.6,3.5-5.4.08-.127-.034-.466-.161-.623q-3.91-4.836-7.859-9.64a1.154,1.154,0,0,0-.748-.369c-.821-.045-1.807-.286-2.421.074-.5.294-.55,1.345-.81,2.057a6.811,6.811,0,0,1-4.934,4.746,6.227,6.227,0,0,1-6.949-3.641A33.922,33.922,0,0,1,964.687,593.03Z" transform="translate(-934.844 -588.42)" fill="#d9f99d"/>
  <path id="Trazado_997138" data-name="Trazado 997138" d="M819.395,711.3c-2.16-2.695-4.236-5.283-6.307-7.875-.187-.234-.49-.508-.472-.744a1.579,1.579,0,0,1,.471-1.015c.42-.35.891-.159,1.224.25.935,1.15,1.859,2.309,2.786,3.466,1.339,1.671,2.692,3.332,4.005,5.022a1.5,1.5,0,0,0,1.308.627,11.39,11.39,0,1,1-6.707,20.814c-3.976-2.548-5.494-6.492-4.9-11.035.613-4.678,3.456-7.762,7.931-9.3C818.913,711.446,819.093,711.393,819.395,711.3Zm2.64,20.584a9.447,9.447,0,0,0,9.583-9.366c-.135-5.77-4.08-9.545-9.514-9.554-5.411-.009-9.393,3.74-9.539,9.526A9.447,9.447,0,0,0,822.035,731.881Z" transform="translate(-810.679 -680.578)" fill="#d9f99d"/>
  <path id="Trazado_997139" data-name="Trazado 997139" d="M849,789.968a7.416,7.416,0,0,1-7.625,7.614,7.571,7.571,0,0,1-7.544-7.3c-.008-.98.646-1.547,1.337-1.094a1.518,1.518,0,0,1,.506,1.009,5.777,5.777,0,0,0,3.948,5.185,5.686,5.686,0,1,0,3.11-10.928,8.475,8.475,0,0,0-1.218-.188c-.665-.039-1.072-.373-1.018-1.023s.542-.855,1.186-.843A7.435,7.435,0,0,1,849,789.968Z" transform="translate(-830.014 -748.159)" fill="#d9f99d"/>
  <path id="Trazado_997140" data-name="Trazado 997140" d="M860.813,805.49a3.739,3.739,0,0,1,3.769,3.232c.091.626.093,1.252-.706,1.438-.659.153-1.014-.2-1.173-1.114a1.889,1.889,0,0,0-3.67-.419,1.9,1.9,0,0,0,.71,2.184,3.379,3.379,0,0,0,1.079.327c.592.12.987.443.923,1.057a.96.96,0,0,1-1.174.875,3.734,3.734,0,0,1-3.515-4.01A3.639,3.639,0,0,1,860.813,805.49Z" transform="translate(-849.408 -767.443)" fill="#d9f99d"/>
</svg>
