<svg id="Grupo_1178209" data-name="Grupo 1178209" xmlns="http://www.w3.org/2000/svg" width="50.833" height="48.749" viewBox="0 0 50.833 48.749">
  <path id="Trazado_997129" data-name="Trazado 997129" d="M649.528,625.347c-1.452-.663-2.838-1.3-4.225-1.93s-2.8-1.254-4.185-1.911a.917.917,0,0,0-1.1.068,6.858,6.858,0,0,1-.886.574,2.859,2.859,0,0,1-3.608-.415c-.544-.518-1.025-1.1-1.747-1.89-.53.642-.924,1.195-1.394,1.673a2.832,2.832,0,0,1-4.06.45,2.075,2.075,0,0,0-2.435-.161c-2.322,1.143-4.708,2.157-7.066,3.227a4.654,4.654,0,0,0-.459.257,31.25,31.25,0,0,1,1.989,3.474,8.607,8.607,0,0,1,.64,3.071c.081,3.2.036,6.4.031,9.594,0,.857-.449,1.389-1.14,1.4s-1.162-.527-1.172-1.366c-.011-.881-.029-1.764.007-2.644.022-.547-.1-.789-.722-.846-2.155-.2-4.3-.473-6.452-.709-2.093-.23-3.241-1.7-2.759-3.721.875-3.667,1.815-7.319,2.75-10.972a3.357,3.357,0,0,1,1.993-2.235q6.678-3.08,13.365-6.144a2.362,2.362,0,0,1,2.311.114c1.382.826,2.775,1.634,4.142,2.484a.829.829,0,0,0,1.017-.007c1.453-.9,2.937-1.755,4.391-2.655a1.65,1.65,0,0,1,1.706-.106c4.586,2.124,9.182,4.226,13.769,6.349a3.455,3.455,0,0,1,1.989,2.417c.879,3.537,1.8,7.063,2.656,10.607a2.89,2.89,0,0,1-2.723,3.878c-2.149.255-4.3.515-6.453.705-.623.055-.744.295-.723.842.035.905.02,1.813,0,2.719a1.163,1.163,0,1,1-2.309-.031c-.005-3.3-.039-6.6.021-9.9a8.692,8.692,0,0,1,2.232-5.562C649.1,625.838,649.28,625.632,649.528,625.347Zm-.553,10.37c2.336-.252,4.558-.494,6.781-.73.88-.094,1.042-.312.829-1.176q-.882-3.586-1.772-7.171c-.214-.856-.454-1.706-.717-2.685-1.052,1.111-2.011,2.07-2.905,3.087a11.462,11.462,0,0,0-1.456,2C648.59,631.126,649.093,633.411,648.975,635.716Zm-30.3-.008a36.009,36.009,0,0,0-.042-4.258,6.491,6.491,0,0,0-1.009-2.947c-1.156-1.6-2.565-3.007-3.948-4.584-.12.3-.188.432-.223.569-.729,2.874-1.471,5.744-2.175,8.624-.352,1.441-.8,1.775,1.368,1.951C614.645,635.226,616.636,635.487,618.675,635.709Zm6.146-15.941a10.135,10.135,0,0,1-1.108-.719,1.276,1.276,0,0,0-1.635-.095c-.926.5-1.91.888-2.867,1.329-1.334.615-2.667,1.235-4.075,1.887a7.687,7.687,0,0,0,.958.994,1.007,1.007,0,0,0,.818.17C619.505,622.193,622.081,621.011,624.821,619.767Zm27.637,2.434c-.069-.071-.1-.12-.14-.14q-3.581-1.663-7.168-3.312a.738.738,0,0,0-.565-.048c-.552.308-1.074.671-1.7,1.07,2.424,1.1,4.7,2.138,6.99,3.167,1.454.654,1.458.647,2.5-.573A.791.791,0,0,0,652.457,622.2Zm-20.532-3.559-3.453-2.078a1.294,1.294,0,0,0-.327-.181.724.724,0,0,0-.425-.005c-.719.316-1.427.654-2.251,1.037,1.04.665,1.965,1.258,2.892,1.849C630.3,620.5,630.3,620.5,631.926,618.643Zm10.314-1.226c-.809-.38-1.482-.707-2.167-1.008a.641.641,0,0,0-.493-.031c-1.271.738-2.527,1.5-3.9,2.322.539.5.958.941,1.431,1.31a.856.856,0,0,0,.726.166C639.292,619.3,640.718,618.381,642.24,617.417Z" transform="translate(-608.677 -613.831)" fill="#d9f99d"/>
  <path id="Trazado_997130" data-name="Trazado 997130" d="M677.383,827.377h12.784c-.237-1.1-.3-1.156-1.393-1.157-.353,0-.706.007-1.058-.009a3.442,3.442,0,0,1-3.316-3.441,3.268,3.268,0,0,1,3.176-3.448,3.117,3.117,0,0,0,3.141-1.78,8.414,8.414,0,0,1,7.42-4.059c5.087-.051,10.175-.021,15.262-.013a2.279,2.279,0,0,1,2.433,2.331c.046.879.035,1.763,0,2.644a2.5,2.5,0,0,1-1.737,2.328c-1.951.81-3.884,1.66-5.835,2.471a.966.966,0,0,0-.7.848,9.3,9.3,0,0,1-14.858,6.025,2.075,2.075,0,0,0-1.147-.4c-4.558-.027-9.117-.016-13.676-.018-2.012,0-2.821-.819-2.821-2.851q0-6.007,0-12.014c0-.916.458-1.4,1.232-1.36.695.037,1.079.5,1.081,1.361q.009,5.667,0,11.333C677.383,826.543,677.383,826.918,677.383,827.377Zm29.085-11.558c-.186-.016-.331-.04-.476-.041-2.617,0-5.235-.023-7.851.018a6.984,6.984,0,0,0-1.992.351,6.859,6.859,0,0,0-4.654,7.757,7.065,7.065,0,0,0,7.464,5.772,6.934,6.934,0,0,0,6.361-6.611,1.537,1.537,0,0,1,1.061-1.542c2.182-.9,4.351-1.838,6.515-2.785.236-.1.554-.355.572-.562.068-.767.027-1.544.027-2.356h-4.6c-.139.931.23,2.169-1.26,2.247C706.86,818.107,706.623,817.612,706.468,815.818Zm-17.4,8.081v-2.316c-.775.088-1.637-.29-2.136.542a1.4,1.4,0,0,0-.028,1.181C687.39,824.176,688.272,823.9,689.071,823.9Z" transform="translate(-665.032 -783.288)" fill="#d9f99d"/>
  <path id="Trazado_997131" data-name="Trazado 997131" d="M717.645,713.451c.9,0,1.81-.014,2.714,0a1.154,1.154,0,0,1,1.294,1.308c.016,1,.033,2.012-.016,3.015a4.048,4.048,0,0,1-8.062.2,29.886,29.886,0,0,1-.041-3.314,1.12,1.12,0,0,1,1.247-1.2C715.735,713.435,716.69,713.451,717.645,713.451Zm-1.771,2.351c0,.613-.013,1.162,0,1.711a1.694,1.694,0,0,0,1.628,1.731,1.743,1.743,0,0,0,1.839-1.62c.052-.591.009-1.191.009-1.822Z" transform="translate(-697.667 -698.392)" fill="#d9f99d"/>
  <path id="Trazado_997132" data-name="Trazado 997132" d="M807.588,848.847a4.669,4.669,0,1,1-4.673-4.626A4.645,4.645,0,0,1,807.588,848.847Zm-2.355.021a2.252,2.252,0,0,0-2.276-2.307,2.287,2.287,0,0,0-2.354,2.323,2.346,2.346,0,0,0,2.335,2.295A2.3,2.3,0,0,0,805.233,848.868Z" transform="translate(-769.603 -809.406)" fill="#d9f99d"/>
</svg>
