<svg id="Grupo_1178210" data-name="Grupo 1178210" xmlns="http://www.w3.org/2000/svg" width="63.263" height="48.568" viewBox="0 0 63.263 48.568">
  <path id="Trazado_997133" data-name="Trazado 997133" d="M722.875,683.611a5.549,5.549,0,0,0-1.257.762c-1.228,1.388-2.42,2.809-3.591,4.246a2.033,2.033,0,0,1-1.724.813q-8.256-.028-16.512,0a2.032,2.032,0,0,1-1.722-.816c-1.17-1.438-2.363-2.859-3.59-4.248a5.511,5.511,0,0,0-1.245-.757c-.075.724-.116,1.142-.162,1.559a2.722,2.722,0,0,1-3.593,2.434,24.319,24.319,0,0,1-2.316-.821,2.681,2.681,0,0,1-1.528-3.386,5.589,5.589,0,0,1,.35-.937,1.9,1.9,0,0,0-.107-1.9,3.944,3.944,0,0,1-.253-2.444c1.854-7.231,3.782-14.444,5.733-21.65a3.005,3.005,0,0,1,.966-1.459q4.485-3.588,9.059-7.064a3.139,3.139,0,0,1,1.73-.6c3.314-.056,6.629-.051,9.943,0a3.009,3.009,0,0,1,1.568.536c1.119.774,2.167,1.651,3.27,2.508a11.8,11.8,0,1,1,21.015,9.325,9.848,9.848,0,0,1,8.725,5.346,9.391,9.391,0,0,1,.544,7.684,9.845,9.845,0,0,1-12.615,5.917c-4.681-1.732-8.533-7.664-5-14.307l-3.784-.289c.38,1.473.745,2.928,1.13,4.378.858,3.226,1.729,6.448,2.588,9.674a3.446,3.446,0,0,1-.449,2.879,1.393,1.393,0,0,0-.117.957,14.327,14.327,0,0,0,.517,1.456,2.663,2.663,0,0,1-1.526,3.379,23.181,23.181,0,0,1-2.315.822,2.726,2.726,0,0,1-3.593-2.438C722.974,684.778,722.946,684.385,722.875,683.611ZM702.49,649.723c-2.848,2.219-5.559,4.318-8.241,6.453a1.011,1.011,0,0,0-.151.837,29.565,29.565,0,0,1,.885,3.612c.375,3.954.741,7.916.872,11.883.1,3-.163,6.007-.274,9.01a2.144,2.144,0,0,0,2.154,2.307h9.184a3.852,3.852,0,0,0,.068-.461q.006-14.26-.006-28.52a1.283,1.283,0,0,0-.3-.809C705.322,652.605,703.935,651.2,702.49,649.723Zm11.133.011c-1.358,1.387-2.68,2.683-3.924,4.049a2.309,2.309,0,0,0-.574,1.411c-.033,9.2-.025,18.408-.025,27.612v1.019c3.233,0,6.33,0,9.427,0a2.181,2.181,0,0,0,1.994-2.106c-.083-1.546-.193-3.092-.243-4.639a89.813,89.813,0,0,1,.672-15.816,1.6,1.6,0,0,0-.36-1.1,12.192,12.192,0,0,1-2.775-6.616,1.354,1.354,0,0,0-.406-.835C716.216,651.731,714.983,650.8,713.623,649.734Zm11.157-5.455q6.653,8.322.018,16.55c2.594,1.873,7.388,1.713,9.537-.093a11.559,11.559,0,0,1-3.315-8.223,11.7,11.7,0,0,1,3.35-8.186A9.2,9.2,0,0,0,724.78,644.279Zm-31.814,15.949h-.388c-.1.3-.227.6-.309.913-1.541,5.837-3.067,11.678-4.629,17.509a1.308,1.308,0,0,0,.547,1.5,7.391,7.391,0,0,0,4.747,1.571c.6.009.6-.35.607-.771.051-3.919.214-7.84.125-11.755C693.6,666.2,693.211,663.216,692.966,660.228Zm29.953,2.155A112.831,112.831,0,0,0,722.6,681.6a6.9,6.9,0,0,0,5.265-1.409,1.411,1.411,0,0,0,.558-1.659c-1.3-4.772-2.587-9.548-3.795-14.344A2.181,2.181,0,0,0,722.919,662.383Zm13.235-2.9c4.407-4.009,3.658-10.86-.035-13.794C732.137,649.023,732.131,655.906,736.154,659.485Zm6.372,3.372a6.92,6.92,0,0,0-7.15.027,9.845,9.845,0,0,1,2.562,6.621,10.072,10.072,0,0,1-2.633,6.724,7.81,7.81,0,0,0,7.267,0A9.979,9.979,0,0,1,742.526,662.857Zm-19.605-3.441c4.195-3.428,3.877-10.714-.032-13.708C718.928,648.964,718.946,656.428,722.921,659.416Zm10.68,4.745c-3.307,2.924-2.792,8.493.032,10.654A7.474,7.474,0,0,0,733.6,664.161Zm10.759,10.691c3.03-2.9,3-8.194-.02-10.664C741.334,666.718,741.323,672.106,744.36,674.852Zm-26.97,11.123H698.73a2.2,2.2,0,0,0,2.285,1.343q7.146-.1,14.293,0A2.182,2.182,0,0,0,717.39,685.975Zm-12.149-36.5,2.674,2.6,2.78-2.6ZM691,683.726l-2.792-.958c-.949,1.655-.871,1.886.845,2.479l.086.027c1.735.58,1.894.466,1.908-1.37A.722.722,0,0,0,691,683.726Zm34.071.021c-.012,2.048.129,2.15,2.024,1.484,1.578-.555,1.615-.633.984-2.187a2.033,2.033,0,0,0-.159-.273Z" transform="translate(-685.489 -640.864)" fill="#d9f99d"/>
  <path id="Trazado_997134" data-name="Trazado 997134" d="M759.072,800.337a2.4,2.4,0,0,1-1.359,2.183,2.188,2.188,0,0,1-2.566-.252c-1.485-1.387-2.931-2.821-4.317-4.307a2.289,2.289,0,0,1,.107-3.078,2.256,2.256,0,0,1,3.06-.323c1.6,1.434,3.09,2.994,4.576,4.548A3.707,3.707,0,0,1,759.072,800.337Zm-2.225.191c-.43-1.005-3.81-4.184-4.388-4.127C752.913,797.417,756.282,800.585,756.847,800.528Z" transform="translate(-738.468 -766.151)" fill="#d9f99d"/>
  <path id="Trazado_997135" data-name="Trazado 997135" d="M829.038,796.957a5.685,5.685,0,0,1-.788,1.4c-1.215,1.314-2.5,2.564-3.788,3.806a2.384,2.384,0,1,1-3.358-3.379c1.248-1.283,2.525-2.539,3.8-3.795a2.331,2.331,0,0,1,2.685-.537A2.426,2.426,0,0,1,829.038,796.957Zm-6.691,3.553.392.39c1.426-1.412,2.874-2.8,4.246-4.268l-.379-.376Z" transform="translate(-795.749 -766.268)" fill="#d9f99d"/>
</svg>
